Coordinates
version=1
nRows=12
nColumns=34
inDegrees=yes

Units are S.I. units (second, meters, Newtons, ...)
If the header above contains a line with 'inDegrees', this indicates whether rotational values are in degrees (yes) or radians (no).

endheader
time	pelvis_tilt	pelvis_list	pelvis_rotation	pelvis_tx	pelvis_ty	pelvis_tz	hip_flexion_r	hip_adduction_r	hip_rotation_r	knee_angle_r	ankle_angle_r	subtalar_angle_r	mtp_angle_r	hip_flexion_l	hip_adduction_l	hip_rotation_l	knee_angle_l	ankle_angle_l	subtalar_angle_l	mtp_angle_l	lumbar_extension	lumbar_bending	lumbar_rotation	arm_flex_r	arm_add_r	arm_rot_r	elbow_flex_r	pro_sup_r	arm_flex_l	arm_add_l	arm_rot_l	elbow_flex_l	pro_sup_l
      0.00000000	      3.83015983	     -7.85600960	    -32.61583711	      3.44986463	      1.00135332	      7.64535816	     36.54159236	     10.23340319	      6.36471695	     16.50316319	     -4.98167710	      8.39452055	      0.00000000	     36.10897525	     23.10042070	     -3.84336546	     25.07220543	    -29.72790972	    -21.42493165	      0.00000000	    -35.00016100	     17.31882511	     47.96297973	     28.55951063	     19.15142759	      6.59367314	     62.94942302	    115.20711514	      8.97573899	     14.94445149	     41.47029643	     51.37792875	    110.05307707
      0.01666670	      3.76544543	     -7.57480402	    -32.45047213	      3.44923543	      0.99954575	      7.64571829	     37.67134622	      9.95371674	      5.06917059	     18.12197545	     -5.29687920	      7.78967463	      0.00000000	     36.70816383	     23.13329972	     -4.69134522	     25.59458508	    -29.17596153	    -20.85229720	      0.00000000	    -34.88129154	     16.96763375	     47.60979087	     28.99101321	     19.17276329	      7.50012868	     62.52950265	    115.50788842	      9.80747835	     14.84172764	     42.33541600	     50.14944584	    109.95498704
      0.03333330	      4.48117627	     -6.79935493	    -32.27463294	      3.44732441	      0.99590887	      7.64578692	     40.57912596	      8.76305047	      1.09432931	     23.35203513	     -6.35217432	      2.87009919	      0.00000000	     37.31280365	     23.94876291	     -5.71053801	     26.32046710	    -28.63075663	    -20.20718195	      0.00000000	    -35.56187461	     15.89735964	     47.24188444	     30.55143295	     18.75539399	      9.65674659	     60.25736531	    115.75995214	     11.42529344	     15.71572412	     43.80800287	     46.04670154	    109.77628618
      0.05000000	      4.18183800	     -6.18032699	    -32.94270968	      3.44873149	      0.99412277	      7.64105280	     42.70972912	      8.30791947	     -1.45080092	     26.16549158	     -7.68031532	     -2.93832008	      0.00000000	     37.43334652	     24.54394627	     -5.50244955	     24.49874333	    -29.85489005	    -20.72971867	      0.00000000	    -35.97836420	     16.02437745	     50.30372241	     31.19182363	     17.11070057	      8.21777561	     57.27426567	    115.59151054	     11.52181263	     17.34062457	     47.39729254	     45.35637444	    109.53231325
      0.06666670	      4.40903588	     -6.08987932	    -33.16805515	      3.44949829	      0.99275829	      7.64112523	     43.81618689	      7.58926539	     -4.45228354	     28.25175554	    -11.09373985	     -4.72214456	      0.00000000	     37.56949309	     24.87249445	     -5.09513566	     24.81067114	    -30.22176656	    -21.91919250	      0.00000000	    -36.54120957	     15.57294397	     51.32430782	     31.67846189	     16.64527729	      8.13011189	     54.22477359	    115.42929116	     12.14173161	     18.50398956	     49.74061274	     43.98636178	    109.12380483
      0.08333330	      4.45421495	     -6.75086948	    -32.71315755	      3.45194795	      0.99106233	      7.64147966	     45.49485422	      7.61024626	     -5.27812267	     31.77499159	    -16.39019867	     -7.17119041	      0.00000000	     37.74795248	     24.99548211	     -3.79712291	     26.49934582	    -29.64600455	    -23.16410644	      0.00000000	    -36.75647879	     16.27674639	     49.95665339	     32.37140378	     17.18474727	      9.38397951	     52.63992184	    115.04165282	     13.07554849	     19.19558566	     51.32570333	     42.07590531	    107.76747692
      0.10000000	      4.40699720	     -7.53902348	    -32.38655276	      3.45561147	      0.99125378	      7.64032519	     46.01980013	      8.14021871	     -3.85610987	     33.45218823	    -19.42900304	     -9.36748789	      0.00000000	     37.46631279	     24.93542924	     -2.62247932	     27.43743158	    -29.67640000	    -23.92433867	      0.00000000	    -36.78396025	     17.52074282	     48.87154396	     32.62730163	     17.76487698	     10.59111661	     51.32028652	    114.55142803	     12.78262467	     19.90715283	     53.60603613	     41.04158157	    106.71237412
      0.11666670	      4.11782815	     -8.38291556	    -33.66025395	      3.45926940	      0.99117618	      7.64002001	     46.19256781	      9.13854983	     -3.96343052	     34.47823309	    -20.61107344	     -9.15421024	      0.00000000	     38.39659326	     23.87355460	     -3.00714310	     29.40800346	    -30.57753412	    -25.86904905	      0.00000000	    -36.76669221	     18.18879913	     47.93246524	     33.53644770	     18.53985905	     12.59931761	     49.89819917	    113.68650478	     12.72453471	     20.41328336	     56.51452633	     39.21326612	    105.17350865
      0.13333330	      4.14523654	     -9.10123093	    -34.47694142	      3.46320667	      0.99310383	      7.63844082	     45.81053640	     10.27915461	     -2.17375488	     34.84762814	    -23.15110793	    -10.36718900	      0.00000000	     38.09369469	     23.03160674	     -3.82654962	     29.83970009	    -30.64370194	    -26.08443780	      0.00000000	    -36.79286204	     18.83076073	     46.85208129	     34.18100448	     19.53317878	     12.67310959	     49.18291701	    112.89526214	     12.53049080	     21.40148827	     56.71727244	     38.55069775	    103.95333663
      0.15000000	      3.63220491	    -10.29065365	    -34.29609319	      3.46359224	      0.99251448	      7.63606355	     46.20409216	     11.47468371	     -1.12336593	     35.30738190	    -26.90403385	     -9.78472224	      0.00000000	     38.17554774	     22.08717110	     -3.47943218	     30.82764946	    -30.69863504	    -26.66723781	      0.00000000	    -36.67909534	     19.80726342	     46.39260882	     36.25663690	     20.56898191	     13.38153593	     48.12452711	    112.22220815	     13.42237552	     22.67953963	     58.23393701	     37.39824800	    103.07079479
      0.16666670	      3.18416022	    -11.12154453	    -34.35145617	      3.46462069	      0.99312623	      7.63560740	     46.00740209	     13.03719720	      1.12842531	     34.41121704	    -31.63506750	    -11.11592770	      0.00000000	     38.13456563	     21.60419181	     -2.43937484	     31.32392076	    -31.64959886	    -28.60387340	      0.00000000	    -36.22527674	     20.48135478	     44.46297030	     37.33867650	     22.23762545	     15.15753414	     48.12071688	    111.22189023	     14.21493149	     23.19985964	     58.08247659	     36.12121162	    101.52972333
      0.18333330	      2.43030514	    -11.46775790	    -34.78708121	      3.46360431	      0.99403370	      7.63337494	     45.67473021	     13.48985306	      0.57036662	     32.56944991	    -31.68630196	     -9.57499372	      0.00000000	     38.62771484	     20.61624355	     -3.30091714	     31.09535036	    -32.61192070	    -28.75023748	      0.00000000	    -36.09109610	     20.53943547	     43.08246860	     38.74376705	     23.33313744	     16.57562714	     47.23869256	    110.91798424	     15.58906903	     23.93508744	     58.71503905	     34.73198317	    101.07663491
